HIERARCHY
ROOT Root
{
  OFFSET 0.0 0.0 0.0
  CHANNELS 6 Xposition Yposition Zposition Zrotation Yrotation Xrotation
  JOINT Hips
  {
    OFFSET 0.0 100.0 0.0
    CHANNELS 6 Xposition Yposition Zposition Zrotation Yrotation Xrotation
    JOINT Spine1
    {
      OFFSET 5.003913 -0.037094 -0.013727
      CHANNELS 3 Zrotation Yrotation Xrotation
      JOINT Spine2
      {
        OFFSET 7.125363 -1e-06 0.0
        CHANNELS 3 Zrotation Yrotation Xrotation
        JOINT Chest
        {
          OFFSET 7.594027 1e-06 0.0
          CHANNELS 3 Zrotation Yrotation Xrotation
          JOINT Neck1
          {
            OFFSET 26.313086 -0.460272 -0.181672
            CHANNELS 3 Zrotation Yrotation Xrotation
            JOINT Neck2
            {
              OFFSET 8.045911 0.0 0.0
              CHANNELS 3 Zrotation Yrotation Xrotation
              JOINT Head
              {
                OFFSET 6.432774 0.0 0.0
                CHANNELS 3 Zrotation Yrotation Xrotation
                JOINT HeadEnd
                {
                  OFFSET 16.169773 0.06451 0.00362
                  CHANNELS 3 Zrotation Yrotation Xrotation
                }
                JOINT Jaw
                {
                  OFFSET 0.108741 3.12938 0.002639
                  CHANNELS 3 Zrotation Yrotation Xrotation
                }
                JOINT LeftEye
                {
                  OFFSET 4.45173 8.166359 3.206392
                  CHANNELS 3 Zrotation Yrotation Xrotation
                }
                JOINT RightEye
                {
                  OFFSET 4.436895 8.135758 -3.222429
                  CHANNELS 3 Zrotation Yrotation Xrotation
                }
              }
            }
          }
          JOINT LeftShoulder
          {
            OFFSET 23.218927 5.195579 1.621656
            CHANNELS 3 Zrotation Yrotation Xrotation
            JOINT LeftArm
            {
              OFFSET 15.902118 2e-06 -2e-06
              CHANNELS 3 Zrotation Yrotation Xrotation
              JOINT LeftForeArm
              {
                OFFSET 28.739307 0.0 -1e-06
                CHANNELS 3 Zrotation Yrotation Xrotation
                JOINT LeftHand
                {
                  OFFSET 27.093981 -4e-06 0.0
                  CHANNELS 3 Zrotation Yrotation Xrotation
                  JOINT LeftHandThumb1
                  {
                    OFFSET 2.276781 3.380274 0.83384
                    CHANNELS 3 Zrotation Yrotation Xrotation
                    JOINT LeftHandThumb2
                    {
                      OFFSET 4.705309 -1e-06 -1e-06
                      CHANNELS 3 Zrotation Yrotation Xrotation
                      JOINT LeftHandThumb3
                      {
                        OFFSET 2.798515 0.0 3e-06
                        CHANNELS 3 Zrotation Yrotation Xrotation
                        JOINT LeftHandThumbEnd
                        {
                          OFFSET 3.180793 4e-06 -4e-06
                          CHANNELS 3 Zrotation Yrotation Xrotation
                        }
                      }
                    }
                  }
                  JOINT LeftHandIndex1
                  {
                    OFFSET 3.247786 2.352677 0.137192
                    CHANNELS 3 Zrotation Yrotation Xrotation
                    JOINT LeftHandIndex2
                    {
                      OFFSET 6.367095 1e-06 0.0
                      CHANNELS 3 Zrotation Yrotation Xrotation
                      JOINT LeftHandIndex3
                      {
                        OFFSET 3.662364 0.0 0.0
                        CHANNELS 3 Zrotation Yrotation Xrotation
                        JOINT LeftHandIndex4
                        {
                          OFFSET 2.329242 4e-06 -4e-06
                          CHANNELS 3 Zrotation Yrotation Xrotation
                          JOINT LeftHandIndexEnd
                          {
                            OFFSET 2.767823 1e-06 0.0
                            CHANNELS 3 Zrotation Yrotation Xrotation
                          }
                        }
                      }
                    }
                  }
                  JOINT LeftHandMiddle1
                  {
                    OFFSET 3.163612 0.945023 -0.406112
                    CHANNELS 3 Zrotation Yrotation Xrotation
                    JOINT LeftHandMiddle2
                    {
                      OFFSET 6.276789 3e-06 0.0
                      CHANNELS 3 Zrotation Yrotation Xrotation
                      JOINT LeftHandMiddle3
                      {
                        OFFSET 4.35652 -1e-06 4e-06
                        CHANNELS 3 Zrotation Yrotation Xrotation
                        JOINT LeftHandMiddle4
                        {
                          OFFSET 2.996877 0.0 8e-06
                          CHANNELS 3 Zrotation Yrotation Xrotation
                          JOINT LeftHandMiddleEnd
                          {
                            OFFSET 2.323256 3e-06 -4e-06
                            CHANNELS 3 Zrotation Yrotation Xrotation
                          }
                        }
                      }
                    }
                  }
                  JOINT LeftHandRing1
                  {
                    OFFSET 2.882606 -0.309162 0.107445
                    CHANNELS 3 Zrotation Yrotation Xrotation
                    JOINT LeftHandRing2
                    {
                      OFFSET 6.033198 0.0 4e-06
                      CHANNELS 3 Zrotation Yrotation Xrotation
                      JOINT LeftHandRing3
                      {
                        OFFSET 4.350578 3e-06 0.0
                        CHANNELS 3 Zrotation Yrotation Xrotation
                        JOINT LeftHandRing4
                        {
                          OFFSET 2.651321 2e-06 -7e-06
                          CHANNELS 3 Zrotation Yrotation Xrotation
                          JOINT LeftHandRingEnd
                          {
                            OFFSET 1.937663 1e-06 -4e-06
                            CHANNELS 3 Zrotation Yrotation Xrotation
                          }
                        }
                      }
                    }
                  }
                  JOINT LeftHandPinky1
                  {
                    OFFSET 2.865315 -1.525436 0.575687
                    CHANNELS 3 Zrotation Yrotation Xrotation
                    JOINT LeftHandPinky2
                    {
                      OFFSET 5.54936 1e-06 -8e-06
                      CHANNELS 3 Zrotation Yrotation Xrotation
                      JOINT LeftHandPinky3
                      {
                        OFFSET 3.070974 0.0 -4e-06
                        CHANNELS 3 Zrotation Yrotation Xrotation
                        JOINT LeftHandPinky4
                        {
                          OFFSET 1.549672 1e-06 0.0
                          CHANNELS 3 Zrotation Yrotation Xrotation
                          JOINT LeftHandPinkyEnd
                          {
                            OFFSET 1.952123 0.0 0.0
                            CHANNELS 3 Zrotation Yrotation Xrotation
                          }
                        }
                      }
                    }
                  }
                }
              }
            }
          }
          JOINT RightShoulder
          {
            OFFSET 23.161716 5.296122 -1.380114
            CHANNELS 3 Zrotation Yrotation Xrotation
            JOINT RightArm
            {
              OFFSET -16.027195 -2e-06 1.1e-05
              CHANNELS 3 Zrotation Yrotation Xrotation
              JOINT RightForeArm
              {
                OFFSET -28.736639 4e-06 2e-06
                CHANNELS 3 Zrotation Yrotation Xrotation
                JOINT RightHand
                {
                  OFFSET -27.133619 6e-06 0.0
                  CHANNELS 3 Zrotation Yrotation Xrotation
                  JOINT RightHandThumb1
                  {
                    OFFSET -2.274328 -3.351035 -0.83067
                    CHANNELS 3 Zrotation Yrotation Xrotation
                    JOINT RightHandThumb2
                    {
                      OFFSET -4.703594 -3e-06 2e-06
                      CHANNELS 3 Zrotation Yrotation Xrotation
                      JOINT RightHandThumb3
                      {
                        OFFSET -2.794935 -4e-06 -3e-06
                        CHANNELS 3 Zrotation Yrotation Xrotation
                        JOINT RightHandThumbEnd
                        {
                          OFFSET -3.183852 4e-06 1e-06
                          CHANNELS 3 Zrotation Yrotation Xrotation
                        }
                      }
                    }
                  }
                  JOINT RightHandIndex1
                  {
                    OFFSET -3.253496 -2.33755 -0.127667
                    CHANNELS 3 Zrotation Yrotation Xrotation
                    JOINT RightHandIndex2
                    {
                      OFFSET -6.344434 0.0 0.0
                      CHANNELS 3 Zrotation Yrotation Xrotation
                      JOINT RightHandIndex3
                      {
                        OFFSET -3.654871 0.0 -8e-06
                        CHANNELS 3 Zrotation Yrotation Xrotation
                        JOINT RightHandIndex4
                        {
                          OFFSET -2.327586 -1e-06 0.0
                          CHANNELS 3 Zrotation Yrotation Xrotation
                          JOINT RightHandIndexEnd
                          {
                            OFFSET -2.770001 3e-06 8e-06
                            CHANNELS 3 Zrotation Yrotation Xrotation
                          }
                        }
                      }
                    }
                  }
                  JOINT RightHandMiddle1
                  {
                    OFFSET -3.168223 -0.944764 0.411762
                    CHANNELS 3 Zrotation Yrotation Xrotation
                    JOINT RightHandMiddle2
                    {
                      OFFSET -6.266691 -1e-06 -4e-06
                      CHANNELS 3 Zrotation Yrotation Xrotation
                      JOINT RightHandMiddle3
                      {
                        OFFSET -4.348901 0.0 0.0
                        CHANNELS 3 Zrotation Yrotation Xrotation
                        JOINT RightHandMiddle4
                        {
                          OFFSET -3.00024 2e-06 -4e-06
                          CHANNELS 3 Zrotation Yrotation Xrotation
                          JOINT RightHandMiddleEnd
                          {
                            OFFSET -2.321477 -4e-06 -4e-06
                            CHANNELS 3 Zrotation Yrotation Xrotation
                          }
                        }
                      }
                    }
                  }
                  JOINT RightHandRing1
                  {
                    OFFSET -2.885654 0.293261 -0.119232
                    CHANNELS 3 Zrotation Yrotation Xrotation
                    JOINT RightHandRing2
                    {
                      OFFSET -6.032835 -1e-06 -4e-06
                      CHANNELS 3 Zrotation Yrotation Xrotation
                      JOINT RightHandRing3
                      {
                        OFFSET -4.33881 0.0 -4e-06
                        CHANNELS 3 Zrotation Yrotation Xrotation
                        JOINT RightHandRing4
                        {
                          OFFSET -2.654903 -4e-06 -4e-06
                          CHANNELS 3 Zrotation Yrotation Xrotation
                          JOINT RightHandRingEnd
                          {
                            OFFSET -1.935122 0.0 4e-06
                            CHANNELS 3 Zrotation Yrotation Xrotation
                          }
                        }
                      }
                    }
                  }
                  JOINT RightHandPinky1
                  {
                    OFFSET -2.866241 1.503904 -0.60527
                    CHANNELS 3 Zrotation Yrotation Xrotation
                    JOINT RightHandPinky2
                    {
                      OFFSET -5.553177 -2e-06 0.0
                      CHANNELS 3 Zrotation Yrotation Xrotation
                      JOINT RightHandPinky3
                      {
                        OFFSET -3.062664 -1e-06 -4e-06
                        CHANNELS 3 Zrotation Yrotation Xrotation
                        JOINT RightHandPinky4
                        {
                          OFFSET -1.546529 2e-06 4e-06
                          CHANNELS 3 Zrotation Yrotation Xrotation
                          JOINT RightHandPinkyEnd
                          {
                            OFFSET -1.952341 0.0 -4e-06
                            CHANNELS 3 Zrotation Yrotation Xrotation
                          }
                        }
                      }
                    }
                  }
                }
              }
            }
          }
        }
      }
    }
    JOINT LeftLeg
    {
      OFFSET -8.443107 2.567604 10.043214
      CHANNELS 3 Zrotation Yrotation Xrotation
      JOINT LeftShin
      {
        OFFSET 43.229198 1e-06 -1e-06
        CHANNELS 3 Zrotation Yrotation Xrotation
        JOINT LeftFoot
        {
          OFFSET 42.298611 1e-06 1e-06
          CHANNELS 3 Zrotation Yrotation Xrotation
          JOINT LeftToeBase
          {
            OFFSET 14.165858 1e-06 0.0
            CHANNELS 3 Zrotation Yrotation Xrotation
            JOINT LeftToeEnd
            {
              OFFSET 6.7141 -0.234461 0.0
              CHANNELS 3 Zrotation Yrotation Xrotation
            }
          }
        }
      }
    }
    JOINT RightLeg
    {
      OFFSET -8.303923 2.592729 -10.047278
      CHANNELS 3 Zrotation Yrotation Xrotation
      JOINT RightShin
      {
        OFFSET -43.369682 0.0 1e-06
        CHANNELS 3 Zrotation Yrotation Xrotation
        JOINT RightFoot
        {
          OFFSET -42.260784 4e-06 2e-06
          CHANNELS 3 Zrotation Yrotation Xrotation
          JOINT RightToeBase
          {
            OFFSET -14.222245 -2e-06 -1e-06
            CHANNELS 3 Zrotation Yrotation Xrotation
            JOINT RightToeEnd
            {
              OFFSET -6.660062 0.232574 -2e-06
              CHANNELS 3 Zrotation Yrotation Xrotation
            }
          }
        }
      }
    }
  }
}
MOTION
Frames: 4
Frame Time: 0.03333333333333333
0.0 0.0 0.0 0.0 -0.0 0.0 -5.455665 50.61816 231.506683 92.384117 -53.691181 86.985672 14.505985 0.384955 0.154487 -4.761959 -0.14465 -0.780789 23.323626 0.290957 -2.387637 19.052349 0.292909 3.552758 -2.515221 -1.172871 2.343282 -28.258253 0.320902 1.031618 7e-06 -0.0 0.0 -0.246765 0.012381 0.030453 -0.197192 -0.007818 0.044014 -0.224616 0.031028 0.019737 -11.672741 -73.432671 22.024817 62.986996 1.986139 -52.678722 33.433548 2.891672 0.761739 32.050354 58.998356 35.702339 17.636631 -26.322725 52.411186 -19.466661 -14.395597 29.410389 -1e-06 -8.774822 -2e-06 15.986647 -18.420723 7.040003 -0.609777 -1.795654 -3.88933 -4.807089 -11.046809 -2.93785 3e-06 -20.976019 0.0 -5.01997 -25.033558 -4.031881 6e-06 1e-06 0.0 -10.634536 -5.686971 -3.565588 10.573274 -17.922951 -3.1139 3e-06 -13.821211 1e-06 -0.501777 -31.181505 -4.027016 -11.653794 -59.542168 7.102096 -13.982716 -7.150198 -2.875042 13.77273 -8.401493 -3.21824 0.347734 -34.211555 0.771653 -0.963028 -17.73337 2.621018 -0.0 0.0 -0.0 -17.346422 -20.095217 -4.201782 21.757559 -1.638375 3.866429 1e-06 -6.338824 0.0 -1.697589 -22.591745 -6.194007 -0.0 -4e-06 -2e-06 169.170639 -73.93042 18.502188 86.986298 -0.89237 -40.183846 12.832616 0.395148 0.031181 54.016453 71.827271 56.745628 22.182117 -20.375898 49.933323 -16.701818 -16.74353 28.476534 -4e-06 -12.690603 -1e-06 16.3678 -18.000782 2.531826 -0.10592 -1.513856 -4.275882 -5.03904 -5.612872 -2.953557 3e-06 -11.020527 -2e-06 -6.111297 -15.895338 -3.840472 -0.0 0.0 0.0 -10.283372 -5.680289 -4.341838 11.028297 -11.302407 -2.372635 -1.384268 -14.238581 -6.320121 -0.625437 -26.924198 -3.827602 -3.686398 -49.984669 -4.580881 -13.708527 -7.363479 -3.720941 18.141151 -14.052742 -3.242675 8e-06 -18.78727 -3e-06 -0.429712 -8.456047 2.555504 -0.0 -0.0 -0.0 -15.923539 -20.094486 -5.473586 30.419222 -7.19083 1.735925 3e-06 -8.162925 -0.0 -1.861901 -22.861479 -6.167944 -1e-06 -2e-06 0.0 125.167465 3.141999 1.898642 106.655975 0.946535 0.020184 -59.521923 7.426315 -7.684652 -5.986714 1.251864 2.371529 -0.999997 0.0 -0.0 -63.341618 1.295672 1.771529 124.447495 0.140555 0.078743 -53.705379 5.574242 -3.492314 -1.733689 0.239336 2.148014 -1.000003 0.0 0.0 
0.0 0.0 0.0 0.0 -0.0 0.0 -5.09099 50.599182 233.47879 90.660294 -53.096916 89.562279 14.715972 0.881112 0.143266 -4.61501 -0.022104 -1.394977 23.755125 1.492682 -2.784398 19.221674 0.508851 3.525156 -2.524724 -1.145653 2.53793 -28.073725 -0.144597 1.576228 6e-06 -0.0 0.0 -0.244869 -0.016862 0.039876 -0.273857 -0.043182 0.036224 -0.322848 0.006456 0.049431 -6.708786 -71.04483 16.272535 61.979713 7.839001 -49.928688 22.923319 1.784182 0.23051 19.26296 58.650131 22.018421 17.636621 -26.322729 52.411182 -19.46666 -14.395598 29.410385 -1e-06 -8.774819 -1e-06 16.107414 -18.403002 6.737751 -0.609775 -1.795654 -3.889327 -4.807089 -11.046809 -2.93785 5e-06 -20.976017 -0.0 -5.01997 -25.033556 -4.031878 6e-06 0.0 -0.0 -10.634529 -5.68697 -3.565587 10.573271 -17.922947 -3.113901 2e-06 -13.821211 2e-06 -0.501777 -31.181505 -4.027013 -11.585307 -59.368763 7.006478 -13.98271 -7.150197 -2.875041 13.772727 -8.401492 -3.218243 0.347733 -34.211552 0.771655 -0.963029 -17.73337 2.62102 -0.0 -0.0 -0.0 -17.346413 -20.095217 -4.20178 21.757555 -1.638374 3.866426 1e-06 -6.338824 2e-06 -1.697589 -22.591742 -6.194004 -0.0 -7e-06 -2e-06 167.360107 -75.086578 20.505377 87.603065 -2.093798 -38.234051 13.787366 0.384622 0.046804 57.397106 71.611755 60.528496 22.182108 -20.375893 49.933304 -16.701811 -16.743528 28.476528 -3e-06 -12.690598 -0.0 16.593369 -18.105503 2.416491 -0.105919 -1.513857 -4.275881 -5.03904 -5.612871 -2.953556 3e-06 -11.020523 -1e-06 -6.111296 -15.89533 -3.84047 1e-06 0.0 0.0 -10.283367 -5.680289 -4.341837 11.028292 -11.302404 -2.372634 -1.384269 -14.238579 -6.320118 -0.625439 -26.924187 -3.827599 -3.896149 -50.281738 -4.385153 -13.708523 -7.363477 -3.720937 18.141146 -14.052739 -3.242675 5e-06 -18.787268 -2e-06 -0.429712 -8.456043 2.555504 -0.0 0.0 -0.0 -15.923532 -20.094482 -5.473581 30.419205 -7.190823 1.735924 2e-06 -8.162925 -0.0 -1.861904 -22.861473 -6.167941 1e-06 -3e-06 -2e-06 128.215134 3.553874 3.071127 104.269524 0.868649 -0.026625 -59.206696 6.862504 -7.294118 -6.059308 1.209067 2.3848 -0.999996 -0.0 -0.0 -69.048912 1.53245 1.033649 128.282349 0.400691 0.14363 -54.21553 5.001005 -3.951172 -2.097618 0.338342 2.09834 -1.000005 -0.0 0.0 
0.0 0.0 0.0 0.0 -0.0 0.0 -4.780939 50.452751 235.63707 88.967911 -52.611599 92.153412 14.860364 1.406313 0.139011 -4.506154 0.047718 -1.938704 24.165136 2.657074 -3.182311 19.229343 0.835985 3.509307 -2.538044 -1.082084 2.599179 -27.838083 -0.64296 1.991535 6e-06 0.0 -0.0 -0.249317 -0.052978 0.044335 -0.363409 -0.07457 0.026374 -0.421495 -0.034806 0.070635 -3.595775 -69.153168 12.442533 61.807011 11.485971 -46.011456 15.491559 0.093407 -0.026836 10.844687 56.138584 13.176556 17.636627 -26.322733 52.411198 -19.466661 -14.395596 29.410393 -1e-06 -8.774817 -1e-06 16.048552 -18.344835 6.423079 -0.609776 -1.795654 -3.889328 -4.807088 -11.046811 -2.93785 4e-06 -20.976015 -0.0 -5.01997 -25.033554 -4.03188 6e-06 -0.0 1e-06 -10.634533 -5.68697 -3.565588 10.573271 -17.922951 -3.113901 2e-06 -13.821206 1e-06 -0.501777 -31.181501 -4.027017 -11.408888 -59.143204 6.792455 -13.982711 -7.150198 -2.875042 13.772728 -8.401493 -3.218241 0.347733 -34.211544 0.771655 -0.963029 -17.733368 2.621019 -0.0 -0.0 -0.0 -17.346416 -20.095217 -4.201783 21.757555 -1.638375 3.866427 1e-06 -6.338823 1e-06 -1.697589 -22.591743 -6.194007 -1e-06 -9e-06 -2e-06 164.295532 -76.507683 24.073071 87.940643 -3.688195 -36.677612 15.509127 0.265519 0.09366 62.680851 70.689163 66.427422 22.182116 -20.375898 49.933327 -16.701811 -16.74353 28.47653 -2e-06 -12.690601 -2e-06 16.756107 -18.181219 2.371983 -0.105919 -1.513856 -4.275882 -5.039041 -5.612872 -2.953557 3e-06 -11.020524 -2e-06 -6.111299 -15.895332 -3.840472 1e-06 0.0 -1e-06 -10.283371 -5.680288 -4.341839 11.028294 -11.302406 -2.372633 -1.38427 -14.238582 -6.320123 -0.625437 -26.924189 -3.827603 -4.159214 -50.428989 -4.165304 -13.708526 -7.363477 -3.72094 18.14115 -14.052737 -3.242673 6e-06 -18.787266 -1e-06 -0.429712 -8.456041 2.555503 -0.0 -1e-06 -0.0 -15.923538 -20.094482 -5.473586 30.419218 -7.190826 1.735927 3e-06 -8.162921 0.0 -1.861904 -22.861473 -6.167943 1e-06 -2e-06 -1e-06 131.332748 3.620482 4.211427 101.664474 0.756429 -0.08993 -58.717026 6.420854 -6.981535 -6.121248 1.178874 2.425277 -0.999998 0.0 -0.0 -73.997704 1.360987 0.333656 131.021744 0.589687 0.150318 -54.191677 4.254313 -4.343548 -2.320428 0.415549 2.031686 -1.000006 0.0 0.0 
0.0 0.0 0.0 0.0 -0.0 0.0 -4.485141 50.181812 238.045624 87.500664 -52.021564 94.561417 15.017264 1.926873 0.082428 -4.410023 0.13612 -2.382867 24.583939 3.71106 -3.513317 19.323769 1.067499 3.410377 -2.573093 -1.045698 2.551864 -27.535984 -1.161055 2.189658 7e-06 -0.0 -0.0 -0.256555 -0.085523 0.046847 -0.458235 -0.094231 0.015067 -0.509678 -0.079368 0.087095 -2.409299 -68.095406 10.834037 62.769871 13.08611 -43.16787 11.695899 -1.095338 -0.108853 7.883783 54.637718 9.961137 17.636625 -26.322729 52.41119 -19.466663 -14.395597 29.410389 0.0 -8.774821 -2e-06 16.034628 -18.224186 6.080781 -0.609776 -1.795655 -3.889328 -4.80709 -11.04681 -2.93785 5e-06 -20.976015 -2e-06 -5.019969 -25.033556 -4.03188 6e-06 1e-06 2e-06 -10.634535 -5.686971 -3.565587 10.573274 -17.922951 -3.113901 3e-06 -13.821206 1e-06 -0.501776 -31.181505 -4.027016 -11.185964 -58.949497 6.411626 -13.982714 -7.150198 -2.875041 13.77273 -8.401493 -3.218242 0.347735 -34.211552 0.771654 -0.963028 -17.733372 2.621019 -0.0 0.0 -0.0 -17.346422 -20.095217 -4.20178 21.757557 -1.638377 3.866427 2e-06 -6.338821 1e-06 -1.697588 -22.59174 -6.194006 0.0 -6e-06 -2e-06 160.607941 -78.184738 28.631729 87.709717 -5.68213 -35.725254 17.809349 -0.030566 0.170268 69.014893 68.915764 73.451271 22.182117 -20.375893 49.933315 -16.701813 -16.743528 28.47653 -3e-06 -12.690601 -2e-06 16.750092 -18.19375 2.434219 -0.105919 -1.513855 -4.27588 -5.039042 -5.612873 -2.953557 4e-06 -11.020527 -2e-06 -6.111298 -15.895334 -3.840471 0.0 0.0 -0.0 -10.283371 -5.68029 -4.341838 11.028293 -11.302405 -2.372632 -1.38427 -14.238585 -6.320122 -0.625439 -26.924192 -3.827602 -4.335356 -50.435619 -3.973662 -13.708524 -7.363478 -3.720938 18.14115 -14.052739 -3.242675 6e-06 -18.78727 -3e-06 -0.429711 -8.456044 2.555502 -1e-06 -1e-06 1e-06 -15.923536 -20.094486 -5.473584 30.419214 -7.190828 1.735926 3e-06 -8.162925 -0.0 -1.861902 -22.861473 -6.167944 -0.0 -3e-06 -1e-06 134.828354 3.524246 5.251121 98.539314 0.612287 -0.173335 -57.26984 6.355227 -6.611682 -6.160045 1.204703 2.447091 -0.999999 0.0 -0.0 -77.808372 0.953437 -0.096401 132.739258 0.744813 0.136007 -53.767899 3.674135 -4.403883 -2.475868 0.443714 1.972193 -1.000005 -0.0 0.0 
